<svg id="visual" viewBox="0 0 900 600" width="900" height="600" xmlns="http://www.w3.org/2000/svg" xmlns:xlink="http://www.w3.org/1999/xlink" version="1.1"><rect x="0" y="0" width="900" height="600" fill="#111933"></rect><path d="M0 374L129 511L257 500L386 411L514 464L643 434L771 519L900 481L900 601L771 601L643 601L514 601L386 601L257 601L129 601L0 601Z" fill="#f5730a"></path><path d="M0 509L129 436L257 513L386 460L514 414L643 522L771 434L900 496L900 601L771 601L643 601L514 601L386 601L257 601L129 601L0 601Z" fill="#da5b09"></path><path d="M0 484L129 526L257 494L386 467L514 501L643 492L771 471L900 499L900 601L771 601L643 601L514 601L386 601L257 601L129 601L0 601Z" fill="#be4407"></path><path d="M0 543L129 492L257 544L386 544L514 516L643 509L771 495L900 523L900 601L771 601L643 601L514 601L386 601L257 601L129 601L0 601Z" fill="#a32d04"></path><path d="M0 571L129 558L257 557L386 554L514 548L643 527L771 536L900 529L900 601L771 601L643 601L514 601L386 601L257 601L129 601L0 601Z" fill="#871400"></path></svg>